<svg xmlns="http://www.w3.org/2000/svg" width="60.164" height="77.921" viewBox="0 0 60.164 77.921"><path d="M19.989,37.161a4.8,4.8,0,0,0-1.806-.513L18.7,16.4H14.315l.516,20.248a8.139,8.139,0,0,0-5.674,4.357,7.837,7.837,0,0,0,3.869,10.508A7.929,7.929,0,0,0,23.6,47.669,7.47,7.47,0,0,0,19.989,37.161Z" transform="translate(13.317 25.667)" fill="#673ab7"/><path d="M34.192.533A7.907,7.907,0,0,0,23.875,4.89a7.831,7.831,0,0,0,.516,7.177L13.3,22.319l3.1,3.076L26.712,14.373l1.548.769A7.884,7.884,0,1,0,34.192.533Z" transform="translate(21.038 0.013)" fill="#673ab7"/><path d="M25.813,22.319,14.722,12.066a7.769,7.769,0,0,0,.516-7.177A7.907,7.907,0,0,0,4.921.533,7.824,7.824,0,0,0,.536,10.785a7.907,7.907,0,0,0,10.317,4.357l1.548-.769L22.718,25.394Z" transform="translate(0.013 0.013)" fill="#673ab7"/><g transform="translate(19.289 21.218)"><path d="M18.387,29.883H17.1A10.768,10.768,0,0,1,7.554,17.837,10.95,10.95,0,0,1,19.677,8.354a11.5,11.5,0,0,1,7.222,4.1A11.149,11.149,0,0,1,29.22,20.4h0a10.363,10.363,0,0,1-4.127,7.177A11.18,11.18,0,0,1,18.387,29.883Zm0-20.248a10.376,10.376,0,0,0-5.932,2.05,9.074,9.074,0,0,0-3.611,6.408A9.522,9.522,0,0,0,17.356,28.6a9.761,9.761,0,0,0,6.964-2.05,9.074,9.074,0,0,0,3.611-6.408,9.614,9.614,0,0,0-2.063-6.92,9.159,9.159,0,0,0-6.448-3.588Z" transform="translate(-7.466 -8.266)" fill="#ffc107"/><ellipse cx="7.738" cy="7.689" rx="7.738" ry="7.689" transform="translate(3.184 3.164)" fill="#ffc107"/></g></svg>