<svg xmlns="http://www.w3.org/2000/svg" width="280" height="46.533" viewBox="0 0 280 46.533">
  <g id="Group_2064" data-name="Group 2064" transform="translate(0 -0.001)">
    <path id="Path_2244" data-name="Path 2244" d="M43.632.5,34.446,25.76H28.541L21.816,6.733,15.091,25.76H9.186L0,.5H6.069L12.3,19.2,19.028.5H24.6L31.33,19.2,37.727.5Z" transform="translate(0 1.205)" fill="#673ab7"/>
    <path id="Path_2245" data-name="Path 2245" d="M57.869.5V25.76H52.128V15.427H34.741V25.76H29V.5h5.741V10.834H51.964V.5Z" transform="translate(18.568 1.205)" fill="#673ab7"/>
    <path id="Path_2246" data-name="Path 2246" d="M74.841,5.421V10.67H91.572v4.757H74.841V25.76H69.1V.5H94.689V5.421Z" transform="translate(44.244 1.205)" fill="#03a9f4"/>
    <path id="Path_2247" data-name="Path 2247" d="M106.612,20.019H91.522L88.733,25.76H82.5L95.951.5h6.4L115.8,25.76h-6.233Zm-2.46-4.593L99.067,5.421,93.982,15.427Z" transform="translate(52.824 1.205)" fill="#03a9f4"/>
    <path id="Path_2248" data-name="Path 2248" d="M133.605,18.871c0,4.429-3.773,6.889-9.842,6.889H104.9V.5h17.387c6.069,0,9.842,2.46,9.842,6.4,0,2.953-1.8,5.413-5.577,5.577C130.489,12.8,133.605,14.771,133.605,18.871Zm-23.128-8.2H121.3c3.117,0,5.085-.492,5.085-2.788S124.42,5.093,121.3,5.093H110.477ZM127.7,18.379c0-2.624-1.968-2.953-5.249-2.953H110.477v5.741h11.974C125.732,21.168,127.7,21,127.7,18.379Z" transform="translate(67.168 1.205)" fill="#03a9f4"/>
    <path id="Path_2249" data-name="Path 2249" d="M147.644,25.76l-8.858-10.334h-7.545V25.76H125.5V.5h17.551c6.233,0,10.826,1.968,10.826,7.545,0,4.265-3.609,7.545-8.2,7.545l8.858,10.334h-6.889Zm-5.085-14.927c3.117,0,5.249.164,5.249-2.624s-2.3-2.953-5.249-2.953H131.077v5.577Z" transform="translate(80.357 1.205)" fill="#03a9f4"/>
    <path id="Path_2250" data-name="Path 2250" d="M146,25.76V.5h5.741V25.76Z" transform="translate(93.484 1.205)" fill="#03a9f4"/>
    <path id="Path_2251" data-name="Path 2251" d="M177.041,17.779,182.29,20.4c-2.46,3.609-7.217,6.4-13.943,6.4-9.514,0-15.747-5.085-15.747-13.45S158.833-.1,168.511-.1c6.4,0,11.318,2.953,13.615,6.4l-5.249,2.624c-1.8-2.788-4.593-4.1-8.366-4.1-6.069,0-10.006,2.953-10.006,8.53s3.937,8.53,10.006,8.53C172.448,22.044,175.236,20.732,177.041,17.779Z" transform="translate(97.711 0.82)" fill="#03a9f4"/>
    <g id="Group_2062" data-name="Group 2062" transform="translate(77.878 0.001)">
      <g id="Group_2049" data-name="Group 2049" transform="translate(0 0)">
        <path id="Path_2261" data-name="Path 2261" d="M12.433,14.8A4.459,4.459,0,0,1,6.6,12.32a4.478,4.478,0,0,1,.292-4.081L.138,2.017,0,1.567,1.292,0,8.206,6.927l.875-.437a4.459,4.459,0,0,1,5.83,2.478A4.511,4.511,0,0,1,12.433,14.8Z" transform="translate(14.556 18.898) rotate(-163)" fill="#673ab7"/>
        <path id="Path_2265" data-name="Path 2265" d="M12.434.31A4.459,4.459,0,0,0,6.6,2.788a4.478,4.478,0,0,0,.292,4.081L.138,13.091,0,13.541l1.292,1.567L8.207,8.181l.875.437a4.459,4.459,0,0,0,5.831-2.478A4.511,4.511,0,0,0,12.434.31Z" transform="translate(16 4.451) rotate(-17)" fill="#673ab7"/>
        <path id="Path_2264" data-name="Path 2264" d="M13.335.31A4.459,4.459,0,0,0,7.5,2.788,4.478,4.478,0,0,0,7.8,6.869L0,14.993l.4.282,1.419,1.051L9.108,8.181l.875.437a4.459,4.459,0,0,0,5.83-2.478A4.511,4.511,0,0,0,13.335.31Z" transform="translate(21.835 41.819) rotate(163)" fill="#673ab7"/>
        <path id="Path_2262" data-name="Path 2262" d="M17.325,13.764" transform="translate(3.439 1.334)" fill="none" stroke="#707070" stroke-width="1"/>
      </g>
      <g id="Group_2061" data-name="Group 2061" transform="translate(11.596 16.136)">
        <path id="Path_2259" data-name="Path 2259" d="M13.3,19.9h-.689a5.785,5.785,0,0,1-5.1-6.481,5.862,5.862,0,0,1,6.481-5.1,6.138,6.138,0,0,1,3.861,2.206A6.025,6.025,0,0,1,19.1,14.794h0a5.583,5.583,0,0,1-2.206,3.861A5.953,5.953,0,0,1,13.3,19.9ZM13.3,9a5.524,5.524,0,0,0-3.171,1.1A4.889,4.889,0,0,0,8.2,13.553a5.115,5.115,0,0,0,4.55,5.653,5.2,5.2,0,0,0,3.723-1.1,4.889,4.889,0,0,0,1.93-3.447,5.2,5.2,0,0,0-1.1-3.723A4.889,4.889,0,0,0,13.856,9Z" transform="translate(-7.466 -8.266)" fill="#ffc107"/>
        <ellipse id="Ellipse_165" data-name="Ellipse 165" cx="4.137" cy="4.137" rx="4.137" ry="4.137" transform="translate(1.702 1.702)" fill="#ffc107"/>
      </g>
    </g>
  </g>
</svg>
